<svg xmlns="http://www.w3.org/2000/svg" viewBox="0 0 1200 1200" role="img" aria-label="Fotball">
  <circle cx="600" cy="600" r="580" fill="#111111" />
  <path d="M 564 61.114 C 392.001 72.488, 234.917 166.458, 142.595 313.202 C 104.988 372.978, 79.069 440.934, 67.533 510 C 38.861 681.670, 92.576 853.856, 213.490 977.869 C 315.854 1082.857, 454.231 1141.107, 600.983 1140.985 C 688.119 1140.912, 773.868 1120.046, 849.685 1080.467 C 1000.386 1001.797, 1105.858 857.149, 1133.438 691.321 C 1162.869 514.360, 1105.396 337.829, 977.869 213.490 C 875.478 113.658, 740.324 59.168, 597.517 60.144 C 585.958 60.223, 570.875 60.659, 564 61.114 M 586.321 84.426 C 541.945 99.646, 506.413 117.132, 467.750 142.778 C 457.425 149.627, 455 151.683, 455 153.588 C 455 157.371, 459.988 255.364, 460.256 256.855 C 460.424 257.790, 468.867 259.899, 487.461 263.652 C 555.959 277.476, 613.688 295.424, 664.360 318.648 C 671.983 322.141, 678.733 325.001, 679.360 325.002 C 680.461 325.003, 840.186 273.059, 840.807 272.497 C 840.976 272.344, 832.763 241.615, 822.557 204.208 C 812.351 166.802, 804 135.967, 804 135.685 C 804 135.402, 811.987 135.359, 821.750 135.588 L 839.500 136.004 825.158 128.993 C 763.512 98.858, 692.787 81.394, 620.500 78.458 L 605.500 77.848 586.321 84.426 M 415.500 159.109 C 382.073 161.213, 347.576 166.848, 307.555 176.740 L 288.610 181.423 278.680 189.153 C 236.638 221.879, 195.907 265.758, 166.037 310.500 C 159.161 320.799, 148.518 338.122, 145.696 343.606 C 144.153 346.605, 144.461 348.476, 154.588 397.606 C 171.495 479.624, 171.471 479.519, 173.069 479.335 C 173.856 479.244, 204.285 473.420, 240.689 466.392 L 306.879 453.614 317.445 435.953 C 348.232 384.497, 389.861 326.557, 430.783 278.208 L 441.187 265.916 438.525 212.752 C 437.061 183.511, 435.642 159.230, 435.373 158.794 C 434.832 157.920, 434.237 157.929, 415.500 159.109 M 771 315.424 L 691.500 341.639 691.720 348.569 C 691.841 352.381, 692.425 361.800, 693.019 369.500 C 693.612 377.200, 694.357 404.425, 694.673 430 C 695.193 472.066, 694.909 487.085, 692.443 548 L 691.937 560.500 768.458 626 C 810.545 662.025, 846.603 692.816, 848.587 694.425 L 852.193 697.349 860.847 694.558 C 901.013 681.602, 961.608 654.060, 1005.500 628.810 L 1018.500 621.331 1018.798 615.915 C 1018.962 612.937, 1020.816 569.325, 1022.920 519 C 1026.448 434.576, 1026.618 427.369, 1025.122 425.808 C 1021.800 422.342, 852.461 289.017, 851.500 289.112 C 850.950 289.166, 814.725 301.006, 771 315.424 M 1062.688 408.614 C 1052.533 419.466, 1045.996 427.241, 1045.990 428.474 C 1045.984 429.588, 1044.206 474.059, 1042.039 527.297 L 1038.099 624.094 1043.588 637.582 C 1055.218 666.166, 1066.154 704.245, 1071.361 734.292 C 1072.676 741.878, 1073.941 748.274, 1074.173 748.507 C 1074.406 748.739, 1080.672 749.234, 1088.099 749.607 L 1101.603 750.284 1105.230 736.892 C 1117.265 692.451, 1121.838 659.608, 1122.689 611.500 C 1123.602 559.842, 1119.379 520.770, 1107.884 474.500 C 1101.946 450.600, 1089.954 414.639, 1081.753 396.140 L 1079.376 390.779 1062.688 408.614 M 241 486.055 C 204.425 493.144, 173.499 499.188, 172.275 499.485 C 170.369 499.948, 169.186 502.719, 164.040 518.763 C 149.252 564.869, 136.798 619.356, 129.354 670.515 L 126.587 689.530 184.922 781.015 C 217.007 831.332, 243.762 873.041, 244.379 873.703 C 245.913 875.349, 276.914 878.733, 302.317 880.027 C 329.570 881.416, 355.819 880.008, 379.757 875.873 C 384.859 874.992, 386.109 874.396, 386.530 872.646 C 386.813 871.466, 396.695 819.254, 408.489 756.619 L 429.933 642.738 422.284 629.619 C 399.575 590.672, 371.882 550.355, 342.524 513.500 C 327.714 494.908, 309.097 472.980, 308.211 473.082 C 307.820 473.127, 277.575 478.965, 241 486.055 M 639 588.217 C 616.725 595.337, 593.775 602.660, 588 604.491 C 521.260 625.647, 448.843 648.836, 448.595 649.130 C 448.281 649.503, 406.291 872.633, 405.776 876.661 C 405.556 878.384, 418.650 890.806, 470.336 937.911 C 505.995 970.410, 535.407 997, 535.695 997 C 535.983 997, 590.027 978.438, 655.794 955.750 L 775.369 914.500 779.758 905.108 C 802.959 855.467, 826.011 783.434, 836.536 727.689 L 839.332 712.877 836.916 710.576 C 834.844 708.603, 685.165 579.883, 681 576.493 C 679.780 575.500, 671.937 577.690, 639 588.217 M 86.004 691.143 C 86.006 691.889, 87.318 698.858, 88.919 706.628 C 113.896 827.847, 181.930 936.986, 280.341 1013.701 C 286.303 1018.349, 291.313 1022.005, 291.473 1021.826 C 291.634 1021.647, 288.407 1015.425, 284.303 1008 C 267.868 978.266, 251.577 942.769, 240.015 911.500 L 233.360 893.500 171.574 796.283 L 109.788 699.066 99.144 694.930 C 93.290 692.656, 87.938 690.568, 87.250 690.290 C 86.563 690.013, 86.002 690.397, 86.004 691.143 M 1062.197 785.417 C 1036.907 835.358, 1000.597 888.427, 953.108 944.858 C 945.073 954.405, 938.086 962.788, 937.581 963.488 C 936.567 964.891, 943.733 994, 945.093 994 C 946.642 994, 986.877 953.252, 996.439 942 C 1037.142 894.098, 1068.714 840.867, 1090.535 783.354 C 1092.991 776.880, 1095 771.003, 1095 770.292 C 1095 769.306, 1092.101 769.002, 1082.750 769.011 L 1070.500 769.021 1062.197 785.417 M 660.580 974.501 C 592.974 997.826, 537.100 1017.494, 536.415 1018.205 C 535.353 1019.309, 525.352 1034.594, 483.445 1099.161 L 477.174 1108.822 484.337 1110.446 C 498.546 1113.666, 524.313 1117.986, 541.730 1120.067 C 564.276 1122.762, 613.067 1123.796, 637.093 1122.088 C 727.618 1115.652, 812.531 1086.932, 887.880 1037.267 C 898.668 1030.155, 922.866 1012.707, 927.819 1008.468 C 928.129 1008.203, 918.037 970.810, 917.488 970.190 C 916.945 969.577, 786.465 932.019, 785 932.054 C 784.175 932.074, 728.186 951.175, 660.580 974.501" fill="#ffffff" fill-rule="evenodd" />
</svg>