<svg width="369" height="200" viewBox="0 0 369 200" fill="none" xmlns="http://www.w3.org/2000/svg">
<g clip-path="url(#clip0_135_32)">
<path d="M233.56 118V200H192.6V183.104H190.296C187.736 187.371 184.664 190.699 181.08 193.088C177.325 195.648 173.144 197.44 168.536 198.464C163.928 199.488 158.893 200 153.432 200C144.728 200 137.816 198.891 132.696 196.672C127.405 194.624 123.395 191.467 120.664 187.2C117.933 182.933 116.141 177.643 115.288 171.328C114.264 165.013 113.752 157.675 113.752 149.312V118H154.712L154.712 136.768C154.712 143.765 155.139 149.227 155.48 153.152C155.821 157.248 156.589 160.235 157.784 162.112C158.979 163.989 160.856 165.099 163.416 165.44C165.805 165.952 169.048 166.208 173.144 166.208C177.411 166.208 180.909 165.696 183.64 164.672C186.2 163.819 188.163 162.283 189.528 160.064C190.723 157.845 191.576 154.688 192.088 150.592C192.429 146.667 192.6 141.717 192.6 135.744L192.6 118H233.56Z" fill="#E8EBF4"/>
<path d="M248.692 200V28.8995H289.652V45.7956H291.956C294.516 41.5289 297.588 38.2009 301.172 35.8116C304.927 33.2516 309.108 31.4596 313.716 30.4355C318.324 29.4115 323.359 28.8995 328.82 28.8995C337.524 28.8995 344.436 30.0089 349.556 32.2276C354.847 34.2755 358.857 37.4329 361.588 41.6996C364.319 45.9662 366.111 51.2569 366.964 57.5716C367.988 63.8862 368.5 71.2249 368.5 79.5876V200H327.54V92.1316C327.54 85.1342 327.113 79.6729 326.772 75.7476C326.431 71.6516 325.663 68.6649 324.468 66.7876C323.273 64.9102 321.396 63.8009 318.836 63.4596C316.447 62.9476 313.204 62.6916 309.108 62.6916C304.841 62.6916 301.343 63.2036 298.612 64.2276C296.052 65.0809 294.089 66.6169 292.724 68.8356C291.529 71.0542 290.676 74.2116 290.164 78.3076C289.823 82.2329 289.652 87.1822 289.652 93.1556V200H248.692Z" fill="#E8EBF4"/>
<path d="M24.064 91.6196L24.064 200H65.5361L65.536 91.6196H96.512V57.8276H65.536L65.5361 45.0275C65.5361 41.1022 65.792 38.1155 66.304 36.0675C66.9867 33.8489 68.352 32.2276 70.4 31.2035C72.448 30.0089 75.52 29.2409 79.616 28.8995C83.8827 28.5582 89.5147 28.8995 96.512 28.8995H113.752V0.22755H96.512C84.736 0.22755 74.0693 -0.284444 65.536 0.22756C57.1733 0.568889 50.176 1.59289 44.544 3.29955C39.0827 4.83555 34.816 7.39555 31.744 10.9796C28.672 14.5636 26.5387 19.5129 25.344 25.8276C24.1493 31.9716 24.064 40.7609 24.064 50.6596L24.064 57.8276H0V91.6196H24.064Z" fill="#E8EBF4"/>
<path fill-rule="evenodd" clip-rule="evenodd" d="M113.752 28.8995V118H154.712V93.1556C154.712 87.1822 154.883 82.2329 155.224 78.3076C155.736 74.2116 156.589 71.0542 157.784 68.8356C159.149 66.6169 161.112 65.0809 163.672 64.2276C166.403 63.2036 169.901 62.6916 174.168 62.6916C178.264 62.6916 181.507 62.9476 183.896 63.4596C186.456 63.8009 188.333 64.9102 189.528 66.7876C190.723 68.6649 191.491 71.6516 191.832 75.7476C192.173 79.6729 192.6 85.1342 192.6 92.1316V118H233.56V79.5876C233.56 71.2249 233.048 63.8862 232.024 57.5716C231.171 51.2569 229.379 45.9662 226.648 41.6996C223.917 37.4329 219.907 34.2755 214.616 32.2276C209.496 30.0089 202.584 28.8995 193.88 28.8995C188.419 28.8995 183.384 29.4115 178.776 30.4355C174.168 31.4596 169.987 33.2516 166.232 35.8116C162.648 38.2009 159.576 41.5289 157.016 45.7956H154.712V28.8995H113.752Z" fill="#C8FB50"/>
<path d="M154.712 0.22755H113.752V28.8995H154.712V0.22755Z" fill="#91CF00"/>
</g>
<defs>
<clipPath id="clip0_135_32">
<rect width="369" height="200" fill="white"/>
</clipPath>
</defs>
</svg>
